<?xml version="1.0" encoding="UTF-8" standalone="no"?>
<!DOCTYPE svg PUBLIC "-//W3C//DTD SVG 1.1//EN"
 "http://www.w3.org/Graphics/SVG/1.1/DTD/svg11.dtd">
<!-- Generated by graphviz version 5.0.0 (20220707.1540)
 -->
<!-- Title: dependencies Pages: 1 -->
<svg width="508pt" height="247pt"
 viewBox="0.00 0.00 508.00 246.80" xmlns="http://www.w3.org/2000/svg" xmlns:xlink="http://www.w3.org/1999/xlink">
<g id="graph0" class="graph" transform="scale(1 1) rotate(0) translate(4 242.8)">
<title>dependencies</title>
<polygon fill="white" stroke="transparent" points="-4,4 -4,-242.8 504,-242.8 504,4 -4,4"/>
<text text-anchor="middle" x="250" y="-8.2" font-family="sans-serif" font-size="14.00">dependencies</text>
<g id="clust1" class="cluster">
<title>cluster_AppModule</title>
<polygon fill="none" stroke="black" stroke-dasharray="1,5" points="8,-32.8 8,-230.8 492,-230.8 492,-32.8 8,-32.8"/>
</g>
<g id="clust2" class="cluster">
<title>cluster_AppModule_declarations</title>
<polygon fill="none" stroke="black" points="204,-40.8 204,-92.8 484,-92.8 484,-40.8 204,-40.8"/>
</g>
<g id="clust7" class="cluster">
<title>cluster_AppModule_bootstrap</title>
<polygon fill="none" stroke="black" points="220,-170.8 220,-222.8 344,-222.8 344,-170.8 220,-170.8"/>
</g>
<g id="clust8" class="cluster">
<title>cluster_AppModule_providers</title>
<polygon fill="none" stroke="black" points="16,-40.8 16,-92.8 196,-92.8 196,-40.8 16,-40.8"/>
</g>
<!-- AppComponent -->
<g id="node1" class="node">
<title>AppComponent</title>
<polygon fill="#ffffb3" stroke="black" points="475.94,-84.8 370.06,-84.8 370.06,-48.8 475.94,-48.8 475.94,-84.8"/>
<text text-anchor="middle" x="423" y="-62.6" font-family="Times,serif" font-size="14.00">AppComponent</text>
</g>
<!-- AppModule -->
<g id="node3" class="node">
<title>AppModule</title>
<polygon fill="#8dd3c7" stroke="black" points="323.66,-149.8 320.66,-153.8 299.66,-153.8 296.66,-149.8 240.34,-149.8 240.34,-113.8 323.66,-113.8 323.66,-149.8"/>
<text text-anchor="middle" x="282" y="-127.6" font-family="Times,serif" font-size="14.00">AppModule</text>
</g>
<!-- AppComponent&#45;&gt;AppModule -->
<g id="edge1" class="edge">
<title>AppComponent&#45;&gt;AppModule</title>
<path fill="none" stroke="black" d="M423,-84.91C423,-104.14 423,-131.8 423,-131.8 423,-131.8 333.92,-131.8 333.92,-131.8"/>
<polygon fill="black" stroke="black" points="333.92,-128.3 323.92,-131.8 333.92,-135.3 333.92,-128.3"/>
</g>
<!-- ToroTableComponent -->
<g id="node2" class="node">
<title>ToroTableComponent</title>
<polygon fill="#ffffb3" stroke="black" points="352.41,-84.8 211.59,-84.8 211.59,-48.8 352.41,-48.8 352.41,-84.8"/>
<text text-anchor="middle" x="282" y="-62.6" font-family="Times,serif" font-size="14.00">ToroTableComponent</text>
</g>
<!-- ToroTableComponent&#45;&gt;AppModule -->
<g id="edge2" class="edge">
<title>ToroTableComponent&#45;&gt;AppModule</title>
<path fill="none" stroke="black" d="M282,-84.91C282,-84.91 282,-103.79 282,-103.79"/>
<polygon fill="black" stroke="black" points="278.5,-103.79 282,-113.79 285.5,-103.79 278.5,-103.79"/>
</g>
<!-- AppComponent  -->
<g id="node4" class="node">
<title>AppComponent </title>
<polygon fill="#80b1d3" stroke="black" points="336.44,-214.8 227.56,-214.8 227.56,-178.8 336.44,-178.8 336.44,-214.8"/>
<text text-anchor="middle" x="282" y="-192.6" font-family="Times,serif" font-size="14.00">AppComponent </text>
</g>
<!-- AppModule&#45;&gt;AppComponent  -->
<g id="edge3" class="edge">
<title>AppModule&#45;&gt;AppComponent </title>
<path fill="none" stroke="black" stroke-dasharray="1,5" d="M282,-149.91C282,-149.91 282,-168.79 282,-168.79"/>
<polygon fill="black" stroke="black" points="278.5,-168.79 282,-178.79 285.5,-168.79 278.5,-168.79"/>
</g>
<!-- PopulationService -->
<g id="node5" class="node">
<title>PopulationService</title>
<ellipse fill="#fdb462" stroke="black" cx="106" cy="-66.8" rx="81.68" ry="18"/>
<text text-anchor="middle" x="106" y="-62.6" font-family="Times,serif" font-size="14.00">PopulationService</text>
</g>
<!-- PopulationService&#45;&gt;AppModule -->
<g id="edge4" class="edge">
<title>PopulationService&#45;&gt;AppModule</title>
<path fill="none" stroke="black" d="M106,-84.91C106,-104.14 106,-131.8 106,-131.8 106,-131.8 230.29,-131.8 230.29,-131.8"/>
<polygon fill="black" stroke="black" points="230.29,-135.3 240.29,-131.8 230.29,-128.3 230.29,-135.3"/>
</g>
</g>
</svg>
